<?xml version="1.0" encoding="UTF-8"?>
<!DOCTYPE svg PUBLIC "-//W3C//DTD SVG 1.1//EN" "http://www.w3.org/Graphics/SVG/1.1/DTD/svg11.dtd">
<!-- Creator: CorelDRAW -->
<svg xmlns="http://www.w3.org/2000/svg" xml:space="preserve" width="47.5784mm" height="47.5784mm" version="1.1" shape-rendering="geometricPrecision" text-rendering="geometricPrecision" image-rendering="optimizeQuality" fill-rule="evenodd" clip-rule="evenodd"
viewBox="0 0 5142.94 5142.94"
 xmlns:xlink="http://www.w3.org/1999/xlink"
 xmlns:xodm="http://www.corel.com/coreldraw/odm/2003">
 <g id="Camada_x0020_1">
  <metadata id="CorelCorpID_0Corel-Layer"/>
  <circle fill="#E05652" cx="2571.47" cy="2571.47" r="2571.47"/>
  <path fill="#FAFAFA" fill-rule="nonzero" d="M2438.38 878.77c58.14,-15.03 116.29,-44.42 177.58,-32.95 234.35,66.94 468.05,135.98 702.78,201.71 79.55,23.58 161.34,40.54 238.87,70.41 -25.92,13.98 -51.59,32.06 -80.67,37.31 -64.85,-11.47 -127.26,-33.27 -190.57,-50.79 -192.19,-55.24 -384.71,-109.1 -576.25,-166.35 -59.84,-11.47 -122.83,-45.06 -183.55,-19.79 -500.82,143.49 -1002.05,286.27 -1503.2,428.47 7.75,107.8 19.06,215.28 26.57,323.09 -22.29,3.47 -45.39,6.22 -67.43,10.01 -10.98,-127.27 -14.94,-255.26 -30.69,-382.04 497.44,-132.76 991.39,-278.11 1486.56,-419.1z"/>
  <path fill="#FAFAFA" fill-rule="nonzero" d="M3569.96 1181.83c75.75,-62.42 172.17,-15.59 252.59,7.99 -32.06,14.13 -61.78,49.58 -99.73,37.31 -51.84,-12.03 -102.96,-26.98 -152.87,-45.3z"/>
  <path fill="#FAFAFA" fill-rule="nonzero" d="M3910.25 1220.51c96.91,21.64 192.68,47.81 288.77,72.43 -7.51,129.13 -17.85,258.01 -33.51,386.4 -22.78,-3.56 -43.53,-6.3 -65.73,-9.53 8.15,-109.66 23.9,-218.76 26.72,-328.82 -92.94,-23.9 -185.48,-48.93 -277.54,-75.99 20.35,-15.01 40.86,-29.63 61.29,-44.49z"/>
  <path fill="#FAFAFA" fill-rule="nonzero" d="M2978.54 1815.25c30.85,-67.68 125.25,-78.98 186.45,-47.89 60.4,25.27 81.48,91.65 102.4,148.25 58.95,172.41 126.55,341.99 182.98,515.21 -49.01,-1.13 -97.78,-6.14 -146.64,-10.26 -13.81,-34.32 -27.13,-68.89 -41.35,-103.05 -101.42,-3.38 -202.85,-9.12 -304.27,-8.87 -10.33,31.57 -21.48,62.74 -31.97,94.31 -52.9,0.81 -105.63,1.78 -158.44,0.57 13.73,-57.74 37.64,-112.33 57.66,-167.97 49.99,-140.42 96.51,-282.4 153.19,-420.31zm114.99 106.59l0 0c-31.25,80.51 -61.78,161.34 -85.84,244.36 66.62,6.29 133.56,7.91 200.34,12.99 -20.75,-88.17 -54.43,-172.65 -84.06,-258 -10.17,0.16 -20.34,0.32 -30.44,0.65z"/>
  <path fill="#FAFAFA" fill-rule="nonzero" d="M2181.76 1769.05c130.25,2.35 260.34,-9.85 390.52,-6.54 104.32,-1.12 166.11,112.82 155.2,206.17 -8,38.03 -24.95,73.32 -41.67,108.2 54.75,87.05 71.15,222.48 -15.91,293.78 -49.5,45.46 -122.65,30.36 -183.38,35.21 -107.89,-3.47 -216.99,12.44 -324.22,-2.91 2.33,-205.92 -0.09,-411.75 1.77,-617.59 5.89,-5.4 11.79,-10.9 17.68,-16.31zm113.06 154.89l0 0c2.66,33.18 5.65,66.29 8.89,99.57 81.31,2.26 163.04,6.86 244.19,-1.12 46.91,-8.49 49.82,-89.39 2.33,-99.73 -85.03,-6.23 -170.39,-1.37 -255.42,1.29zm-0.09 217.71l0 0c-1.05,35.21 -1.93,70.25 -2.75,105.62 82.78,-1.13 165.71,2.51 248.4,0.56 55.07,0.57 68.64,-91.08 16.39,-105.87 -86.89,-9.04 -174.91,-1.93 -262.04,-0.31z"/>
  <path fill="#FAFAFA" fill-rule="nonzero" d="M1913.18 1775.03c45.63,-3.56 91.33,-6.38 137.12,-8.64 -1.62,175.31 3.79,350.79 -1.29,526.1 1.85,40.54 -12.68,81.88 -40.55,111.36 -43.52,37.22 -123.14,30.93 -150.76,-23.34 -75.67,-104.74 -155.61,-206.49 -226.92,-314.37 -21.07,-28.99 -39,-60.81 -66.69,-84.15 -13.4,14.05 -17.85,31.34 -13.49,52 -4.68,137.2 14.38,274.56 -1.93,411.6 -41.83,1.7 -83.58,3.79 -125.41,5.57 -3.72,-179.43 -4.84,-359.02 -2.33,-538.45 2.58,-71.06 64.11,-134.62 137.19,-129.69 32.62,-4.52 58.54,20.27 77.69,43.44 96.33,126.3 178.05,263.25 274.56,389.39 4.36,-146.96 2.42,-293.94 2.82,-440.83z"/>
  <path fill="#FAFAFA" fill-rule="nonzero" d="M3496.08 1790.86c45.54,2.76 91.24,6.14 136.95,9.37 1.21,134.46 -3.15,268.99 1.29,403.44 3.72,21.8 -3.79,67.92 28.43,74.62 123.23,23.09 249.2,27.62 373.8,40.54 1.13,55.8 4.6,111.76 3.47,167.64 -105.54,-12.03 -211.25,-23.34 -317.03,-33.67 -58.14,-6.86 -120.64,-12.44 -169.18,-48.78 -31.16,-33.83 -52.08,-76.3 -53.7,-122.74 -10.73,-163.28 -1.93,-326.96 -4.03,-490.41z"/>
  <path fill="#FAFAFA" fill-rule="nonzero" d="M1171.95 1835.76c47.72,-4.28 95.61,-8.31 143.42,-12.36 -0.65,214.4 2.58,428.87 -1.62,643.28 -46.91,3.38 -93.84,7.5 -140.84,10.25 -4.68,-213.67 -4.03,-427.5 -0.96,-641.17z"/>
  <path fill="#FAFAFA" fill-rule="nonzero" d="M4109.87 1845.69c45.71,4.6 91.25,11.22 136.72,18.57 2.1,148.19 -3.39,296.36 1.05,444.55 -0.97,30.76 38.28,42.39 62.42,41.98 110.95,13.49 222.14,26.41 332.13,47.09 0.09,54.34 0.16,108.69 0.16,163.04 -112.48,-12.44 -224.17,-30.93 -336.57,-44.34 -53.86,-4.19 -109.82,-21.96 -146.24,-63.95 -41.83,-37.88 -47.81,-98.84 -49.51,-151.73 -3.47,-151.74 0.65,-303.55 -0.16,-455.21z"/>
  <path fill="#FAFAFA" fill-rule="nonzero" d="M592.31 1917.4c123.55,-8.64 244.84,-50.14 369.12,-38.36 100.54,34.64 132.76,155.7 118.87,250.98 -11.31,91.73 -72.76,177.58 -159.33,211.9 -90.12,22.28 -183.06,28.83 -274.87,40.29 -0.57,55.48 -1.06,110.96 -1.62,166.59 -42.88,5.25 -85.44,12.44 -128.07,19.38 1.21,-205.03 -3.63,-410.05 0.56,-614.92 0,-38.92 47.56,-29.48 75.34,-35.85zm266.72 129.77l0 0c-71.37,6.79 -141.96,20.51 -212.86,31.17 0.65,49.82 3.39,99.64 6.78,149.39 68.33,-11.38 137.37,-17.6 205.52,-29.55 23.58,-4.12 51.93,-8 68.08,-28.18 22.29,-26.33 16.47,-65.09 23.18,-96.1 -27.62,-15.75 -55.96,-38.28 -90.69,-26.73z"/>
  <path fill="#FAFAFA" fill-rule="nonzero" d="M2494.68 2750.11c51.76,-5.65 103.76,1.21 154.95,9.12 2.51,88.67 3.96,177.34 5.98,266 -92.21,11.31 -16.8,-117.81 -96.33,-128.88 -15.35,42.39 7.19,129.29 -63.8,128.4 -1.21,-91.66 -1.21,-183.15 -0.8,-274.65zm56.36 51.12l0 0c0,12.12 0,36.34 0,48.45 12.11,0 36.34,0 48.45,0 0,-12.11 0,-36.33 0,-48.45 -12.11,0 -36.34,0 -48.45,0z"/>
  <path fill="#FAFAFA" fill-rule="nonzero" d="M2721.18 2738.97c11.88,5.74 52.74,-1.12 50.32,24.39 3.55,66.3 0.48,133 4.11,199.47 17.53,3.38 34.97,6.94 52.58,10.66 4.12,-73.49 5.49,-147.14 6.62,-220.7 12.04,0 36.1,0 48.05,0 -0.31,86.4 -0.96,172.89 -6.86,259.21 -47.56,5.42 -120.16,32.46 -152.13,-19.94 -7.19,-84.23 -3.56,-168.77 -2.67,-253.08z"/>
  <path fill="#FAFAFA" fill-rule="nonzero" d="M2079.77 2765.79c34.16,-7.19 79.37,-25.2 110.22,0.8 21.8,18.09 15.34,49.66 19.94,74.78 -36.42,-9.21 -73,-17.77 -109.66,-25.92 1.37,64.27 71.87,60.48 114.83,82.12 -9.69,38.04 14.86,97.31 -25.51,123.06 -47.65,21.33 -97.79,6.23 -142.37,-13.88 1.86,-15.26 5.49,-45.95 7.26,-61.3 36.99,8.97 72.76,22.21 109.19,33.27 6.94,-74.93 -92.55,-44.01 -110.8,-99.73 -2.18,-36.09 -16.87,-95.28 26.89,-113.21z"/>
  <path fill="#FAFAFA" fill-rule="nonzero" d="M2271.55 2755.37c58.79,-1.46 117.66,-1.78 176.53,-0.81 -5,34.88 -34.57,45.3 -62.1,56.05 -5.73,71.06 3.79,144.94 -12.59,214.72 -16.15,0.49 -32.22,-0.89 -48.21,-2.02 -0.41,-70.74 -0.74,-141.4 -0.81,-211.97 -13.17,-1.53 -39.56,-4.44 -52.73,-5.98 0,-12.43 0,-37.47 -0.09,-49.98z"/>
  <path fill="#FAFAFA" fill-rule="nonzero" d="M2968.6 2756.02c47.81,2.98 98.44,1.69 141.72,25.67 -0.97,25.36 -2.18,50.72 -3.47,76.07 -36.34,-11.54 -64.93,-37.63 -98.04,-55.31 -15.74,46.03 -14.29,95.45 -11.62,143.33 0.96,17.05 13.24,30.2 30.28,32.22 28.43,-9.21 48.86,-33.92 75.83,-46.11 -1.46,28.75 15.03,65.98 -12.68,85.92 -40.37,28.9 -92.38,6.95 -137.52,3.16 0.49,-86.9 -30.04,-185.16 15.5,-264.95z"/>
  <path fill="#FAFAFA" fill-rule="nonzero" d="M1826.2 2780.08c48.61,4.68 125.01,-39.16 156.1,16.22 7.19,82.37 3.63,165.15 3.47,247.83 -13.4,-0.89 -40.37,-2.66 -53.86,-3.55 -1.93,-71.8 -2.82,-143.42 -3.31,-215.13 -11.87,0 -35.69,0 -47.56,0 -0.09,73.48 -0.25,146.98 -0.65,220.53 -18.73,0.16 -37.47,-0.24 -56.21,-0.8 -0.15,-88.43 -0.15,-176.77 2.02,-265.11z"/>
  <path fill="#FAFAFA" fill-rule="nonzero" d="M3166.85 2768.85c58.63,1.37 117.42,4.69 175.88,10.42 -6.54,38.68 -62.58,43.93 -54.34,87.62 -4.77,57.5 -4.12,115.31 -5.25,173.05 -13,0.97 -38.92,3.07 -51.93,4.04 -2.42,-69.13 -0.89,-138.65 -10.01,-207.29 -37.31,-6.3 -49.26,-35.94 -54.35,-67.84z"/>
  <path fill="#FAFAFA" fill-rule="nonzero" d="M1616.49 2811.33c39.32,-33.92 97.07,-24.47 144.14,-14.38 -1.77,76.39 4.93,153.43 -2.91,229.58 -13.32,45.7 -75.58,34.4 -111.6,41.26 -42.96,7.19 -48.45,-52.57 -47.72,-80.83 2.82,-57.33 -14.54,-124.19 18.08,-175.63zm39.57 33.43l0 0c-0.89,54.43 0,108.77 0.96,163.28 13.17,0 39.57,0 52.81,0 0.81,-54.43 -0.16,-108.94 -0.96,-163.28 -13.17,0 -39.57,0 -52.81,0z"/>
  <path fill="#FAFAFA" fill-rule="nonzero" d="M3411.37 2788.55c43.93,9.21 121.62,-13.8 143.66,42.16 10.26,68.23 10.02,139.21 0.16,207.62 -10.58,33.35 -53.21,29.88 -81.16,28.02 -27.46,-3.96 -73.72,-6.22 -79.7,-42.07 -7.27,-78.17 -13.08,-161.43 17.04,-235.72zm39.9 50.23l0 0c-3.96,56.36 -2.51,112.89 -2.27,169.42 13.73,0.97 41.18,2.91 54.91,3.88 -0.08,-54.27 -0.15,-108.54 -0.15,-162.72 -17.53,-3.47 -35.05,-7.1 -52.49,-10.57z"/>
  <path fill="#FAFAFA" fill-rule="nonzero" d="M3617.05 2805.91c47.89,13.73 141.8,-12.68 162.55,50.72 0.32,78.32 -7.91,156.74 -1.77,235.31 -11.14,0 -33.36,-0.16 -44.5,-0.16 -5.73,-38.19 3.96,-80.02 -13.08,-115.71 -12.12,-2.35 -36.34,-6.95 -48.37,-9.21 -2.02,36.18 -1.37,72.36 -1.37,108.61 -13.4,0.08 -40.05,0.24 -53.45,0.32 -0.16,-89.96 -0.16,-179.92 0,-269.88zm57.66 53.54l0 0c-0.41,13.89 -1.3,41.51 -1.7,55.4 16.55,-0.81 49.66,-2.5 66.22,-3.31 -0.65,-39.09 -33.6,-48.77 -64.52,-52.09z"/>
  <path fill="#FAFAFA" fill-rule="nonzero" d="M1376.99 2854.53c29.47,-56.77 107.88,-36.27 160.13,-26.49 -2.91,25.36 -4.37,52.58 -7.03,78.41 -34.88,-8.07 -67.35,-23.5 -101.35,-34.32 0,57.82 0.72,115.64 2.26,173.54 48.77,-8.81 53.21,-72.03 105.71,-74.78 2.11,35.37 7.44,83.01 -27.13,105.13 -41.91,14.61 -87.37,12.36 -131.14,11.63 -4.36,-77.36 -14.29,-156.5 -1.45,-233.13z"/>
  <path fill="#FAFAFA" fill-rule="nonzero" d="M1097.66 3237.94c21.96,-2.75 43.04,-6.95 65.33,-9.12 20.27,217.79 34.96,436.06 55.06,653.85 455.44,271.49 914.12,537.72 1365.37,816.4 455.59,-270.44 906.27,-549.03 1363.57,-816.65 13.08,-217.7 27.62,-435.49 49.58,-652.48 21.8,2.58 42.97,5.17 65.17,8.49 -15.01,217.46 -32.78,434.84 -51.28,652.07 -2.1,41.59 -46.35,56.37 -75.58,76.88 -239.91,138.17 -477.89,279.65 -714.09,424.19 -215.2,126.3 -424.03,263.81 -643.76,382.28 -468.36,-293.22 -946.82,-569.95 -1422.36,-851.21 -16.07,-228.46 -34.23,-456.82 -57.01,-684.7z"/>
  <path fill="#21457A" fill-rule="nonzero" d="M2447.03 638.77c59.92,-10.82 122.34,-52.97 184.43,-26 409.42,116.76 818.58,236.2 1227.68,353.28 57.5,-10.09 106.92,-46.43 162.64,-63.31 -36.5,26.49 -74.86,50.39 -111.11,77.29 55.23,15.1 109.74,34.64 166.26,45.14 20.52,4.92 38.69,-9.05 56.77,-16.31 76.96,-38.69 148.35,-87.95 227.4,-122.43 -63.22,61.7 -142.93,101.91 -209.46,159.24 90.36,32.95 184.52,53.38 276.89,80.03 1.78,30.6 3.63,61.2 5.58,91.89 114.02,27.22 228.77,52.33 340.85,87.46 -117.74,-1.3 -234.19,-21.48 -350.46,-37.96 -58.8,698.28 -10.46,87.6 -31.74,439.62 163.69,19.47 327.52,40.14 489.35,72.52 7.67,367.1 -2.1,734.36 4.93,1101.38 -191.63,-17.05 -380.43,-56.12 -571.32,-78.98 -91.11,1470.49 39.64,-591.17 -86.09,1251.01 -238.54,148.42 -485,283.36 -725.47,428.55 -307.02,185.16 -612.27,373.4 -920.17,557.19 -279.34,-163.99 -1086.03,-641.89 -1610.69,-958.12 -15.43,-10.26 -34.96,-19.62 -40.61,-38.68 -92.67,-1306.34 -58.88,-1035.85 -90.85,-1242.22 -190.08,27.14 -379.69,56.93 -569.55,85.76 3.23,-366.61 -21.8,-734.2 1.62,-1100.49 157.62,-25.11 315.74,-47.49 473.94,-68.95 -5.12,-198.16 -16.85,-391.33 -26.49,-589.58 577.78,-153.1 1150.48,-324.95 1725.68,-487.34zm-8.64 240c-680,193.62 -1510.86,164 -1455.88,801.14 22.05,-3.79 45.14,-6.54 67.43,-10.01 -7.51,-107.81 -18.82,-215.29 -26.57,-323.09 501.14,-142.21 1002.38,-284.98 1503.2,-428.47 60.73,-25.27 123.71,8.32 183.55,19.79 191.54,57.25 384.06,111.11 576.25,166.35 63.31,17.52 125.72,39.32 190.57,50.79 29.08,-5.25 54.75,-23.34 80.67,-37.31 -77.51,-29.88 -159.32,-46.84 -238.87,-70.41 -234.75,-65.73 -468.44,-134.77 -702.78,-201.72 -61.29,-11.46 -119.43,17.93 -177.57,32.96zm72.27 129.52c-465.7,132.2 -931.32,264.55 -1397.02,396.5 10.26,85.51 17.52,171.27 24.71,257.11 499.13,-48.05 1000.36,-72.6 1501.82,-71.95 50.39,3.96 98.44,-8.32 139.95,-37.07 191.06,-122.02 393.18,-224.98 592.47,-332.7 -23.09,-10.01 -46.43,-19.13 -70.41,-26.41 -200.59,-56.68 -400.69,-115.31 -600.63,-174.18 -61.94,-18.65 -127.99,-36.49 -190.89,-11.31zm1059.3 173.54c49.91,18.32 101.02,33.27 152.87,45.3 37.95,12.27 67.67,-23.18 99.73,-37.31 -80.43,-23.58 -176.84,-70.41 -252.59,-7.99zm340.29 38.68c-20.43,14.86 -40.94,29.48 -61.29,44.49 92.05,27.06 184.6,52.09 277.54,75.99 -2.82,110.06 -18.57,219.16 -26.72,328.82 22.2,3.23 42.96,5.98 65.73,9.53 15.66,-128.39 26,-257.27 33.51,-386.4 -96.1,-24.62 -191.87,-50.79 -288.77,-72.43zm-477.89 55.15c-160.21,103.69 -323.41,203.1 -480.55,311.46 48.77,21.48 104.66,10.1 156.26,15.51 40.46,-0.74 86.96,6.62 121.44,-19.87 142.37,-97.23 287.72,-190.09 430.49,-286.75 -72.76,-21.32 -156.66,-68.15 -227.65,-20.35zm339.73 50.63c-117.9,91.25 -235.87,182.99 -345.06,284.65 196.31,19.87 393.11,37.15 590.06,50.31 8.8,-85.03 15.75,-170.3 20.43,-255.58 -87.37,-30.04 -176.6,-54.1 -265.44,-79.38zm-840.87 514.72c-63.22,157.22 -108.37,321.15 -172.41,478.13 2.35,-103.12 -15.18,-206.01 -4.27,-309.04 6.29,-75.1 5.89,-159.57 -50.47,-217.63 -44.18,-63.06 -131.71,-66.14 -201.24,-66.14 -111.76,2.18 -225.05,-6.22 -335.45,15.11 -24.55,6.86 -35.85,34.56 -36.01,58.06 -3.32,134.7 1.12,269.39 -0.81,404.16 1.45,93.1 -5.9,188.8 20.34,279.49 6.23,23.49 26.73,44.65 52.49,43.61 123.95,1.93 248.56,4.36 372.19,-7.51 65.66,1.21 116.45,-45.95 160.53,-88.42 1.06,21.24 3.16,63.71 4.2,84.95 63.06,5.73 126.3,10.57 189.68,12.36 13.81,-33.03 26.97,-66.38 40.86,-99.41 79.62,2.58 159.17,7.59 238.79,11.47 15.74,29.64 22.36,67.92 49.26,89.23 57.17,17.12 119.02,9.77 178.05,14.21 9.21,-21.56 18.66,-43.04 28.19,-64.45 38.28,34.01 77.19,73.33 132.03,75.75 134.61,20.83 271,27.69 406.18,44.65 15.1,-23.82 30.76,-47.32 45.94,-71.06 34.16,31.81 67.52,68.08 113.87,81.48 64.12,17.92 130.98,19.62 196.39,29.79 70.01,7.51 138.74,26.82 209.24,28.92 30.84,-14.78 58.54,-36.34 79.37,-63.55 39.65,-42.48 24.63,-106.84 26.82,-159.17 -3.88,-23.34 1.77,-66.29 -29.56,-75.1 -109.99,-27.62 -224.25,-31.97 -335.45,-52.8 -14.85,-3.39 -34.96,-7.75 -33.02,-27.06 0.81,-151.98 7.19,-304.6 -9.37,-456 -57.17,-11.47 -115.15,-18.57 -173.3,-21.64 -34.47,57.33 -81.56,116.69 -74.04,188.07 -1.45,94.24 0.49,188.47 0.56,282.71 -117.65,-13.33 -235.95,-20.43 -353.37,-35.37 -4.6,-141.64 0.57,-283.28 -2.26,-424.84 17.28,-37.3 -22.36,-62.82 -52.73,-60.48 -41.83,-1.29 -90.44,-24.31 -129.69,-1.05 -30.2,31.57 -36.74,78.57 -49.58,118.71 -8.89,130 5.25,260.58 -3.39,390.67 -55.47,-134.53 -96.73,-274.4 -147.94,-410.63 -23.01,-60.57 -65.88,-120.72 -131.54,-136.95 -91.74,-27.13 -193.08,23.82 -219.08,116.77zm-1048.48 -64.45c-6.7,114.43 -0.97,229.17 1.45,343.68 -82.21,-104.98 -148.02,-222.23 -233.37,-324.79 -39.89,-50.79 -113.22,-54.18 -168.69,-31 -55.96,30.36 -76.15,94.24 -97.54,150.03 -17.2,-41.58 -34.81,-82.93 -52.73,-124.2 -54.91,3.72 -110.23,5.33 -164.34,16.15 -16.8,2.43 -26.01,19.22 -27.06,34.73 -4.92,67.99 -4.36,136.23 -6.38,204.46 -39.81,-80.27 -79.21,-177.49 -174.74,-204.06 -128.48,-1.93 -254.13,31.57 -381.55,44.33 -33.36,7.6 -82.45,14.63 -89.97,54.43 -8.87,200.51 -4.52,401.74 -2.5,602.49 -7.44,46.76 31.16,78.65 60.48,107.56 32.95,39.32 86.81,16.31 129.13,11.79 24.3,-6.7 57.57,-8.16 72.19,-32.87 6.86,-44.57 3.16,-90.28 5.65,-135.1 84.31,-15.66 170.71,-19.46 253.4,-43.04 55.71,-27.46 94.07,-77.84 130.25,-126.37 1.37,54.67 0.32,109.74 7.43,164.25 10.26,42.96 42.39,75.99 66.29,111.68 57.1,-8.49 114.43,-15.35 171.29,-25.03 4.36,-30.04 7.5,-60.4 10.41,-90.52 18.01,26.56 31.09,57.73 55.64,79.29 55.72,9.29 113.22,-5.64 168.69,-12.59 8.49,-127.75 6.06,-255.83 8.32,-383.66 84.79,107.81 161.25,221.74 242.9,331.82 35.04,52.73 109.1,51.44 161.99,29.88 60.73,-41.59 73.01,-120.57 70.25,-188.8 -2.9,-174.02 4.93,-348.2 -4.84,-521.9 -5.64,-27.06 -4.6,-63.8 -30.6,-81.41 -33.27,-9.2 -68.88,-2.42 -102.64,-2.66 -27.22,0.24 -75.34,5.24 -78.81,41.42zm2449.53 -12.76c142.93,43.84 291.36,67.5 433.48,114.5 -136.31,-12.27 -271.65,-37.71 -409.01,-36.02 134.77,42.32 275.93,60.89 408.84,109.17 -136.07,-13.48 -271.49,-38.19 -408.68,-36.09 135.26,40.05 275.28,61.94 408.77,108.54 -136.23,-13.41 -271.74,-41.03 -409.17,-35.69 129.84,39.08 264.38,60.39 393.91,100.85 -136.88,-4.59 -272.14,-30.11 -408.93,-36.65 139.3,46.99 285.94,68.15 425.08,115.71 -142.12,-12.59 -282.87,-38.6 -425.8,-41.99 134.93,41.67 273.99,67.92 409.65,107.16 -135.18,-0.74 -267.93,-31.5 -402.95,-34.57 130.33,49.58 270.44,64.28 402.54,108.21 -134.93,-0.16 -266.96,-33.83 -401.89,-34.56 60.4,28.33 127.58,35.28 192.18,48.85 74.22,11.79 146.49,33.11 217.31,58.06 -14.95,0.9 -44.74,2.67 -59.68,3.56 3.88,17.61 7.75,35.13 11.39,52.81 18.81,5 37.63,10.01 56.44,15.26 -18.66,-0.49 -37.23,-0.89 -55.64,-1.37 -0.8,13.08 -2.5,39.16 -3.39,52.24 19.54,7.67 39.16,15.35 58.79,23.1 -14.61,0.72 -43.85,2.17 -58.47,2.82 0.32,13.33 0.81,40.06 1.05,53.38 18.57,3.47 37.23,7.19 55.88,10.74 -39.16,0.16 -73.16,20.27 -107.4,35.85 23.9,13.73 49.42,24.3 75.25,34.07 -43.76,5.42 -92.78,-0.16 -127.82,31.09 53.21,18.91 108.13,32.31 162.14,49.02 -142.36,-6.78 -282.55,-40.94 -425.48,-35.12 162.39,41.75 325.19,86.72 491.54,109.25 -3.63,-167.16 10.99,-334.31 -0.56,-501.31 -1.77,-165.06 3.96,-330.19 2.42,-495.25 -166.51,-23.9 -333.5,-49.1 -501.79,-55.64zm-4009.74 61.21c-0.24,334.06 -0.89,668.21 0.32,1002.38 167.08,-41.92 336.17,-75.27 502.36,-120.57 -142.2,6.95 -282.87,35.62 -425.4,35.78 47.81,-15.67 97.14,-26.01 145.28,-40.71 -9.29,-10.66 -27.78,-31.97 -36.99,-42.63 -33.11,3.96 -66.29,7.5 -99.4,10.5 29.88,-9.05 59.75,-17.92 89.72,-26.81 -19.31,-30.04 -47.72,-54.03 -87.37,-49.67 15.34,-3.31 30.6,-6.85 45.86,-10.5 -6.45,-26.97 -20.75,-47.96 -42.88,-63.07 12.52,-2.57 25.03,-5.32 37.64,-8.15 -0.25,-14.21 -0.74,-42.72 -0.97,-56.93 -9.37,0.57 -18.66,1.22 -27.94,2.02 7.91,-9.61 19.62,-17.2 23.5,-29.39 3.15,-63.71 -13.33,-127.76 4.77,-190.58 -9.53,0.57 -19.06,1.21 -28.59,1.86 48.21,-32.7 2.51,-98.84 24.87,-144.54 -11.63,1.86 -23.25,3.79 -34.88,5.82 31.81,-13.89 55.15,-58.79 14.94,-78.74 27.13,-16.71 44.25,-79.3 -13.33,-70.01 35.13,-9.2 58.71,-36.82 75.02,-67.67 -24.14,-2.18 -48.29,-4.28 -72.35,-6.23 131.05,-33.11 263,-63.06 393.34,-99.15 -163.36,5.33 -325.11,30.85 -487.5,47zm2149.78 896.58c-2.02,107.73 -9.61,216.41 5.33,323.65 37.88,0.08 85.44,6.22 97.39,-38.51 12.27,45.38 62.5,36.09 100.21,40.86 2.66,-100.38 9.61,-202.94 -11.72,-301.61 -55.07,-37.47 -129.28,-18.49 -191.22,-24.39zm223.53 11.14c0.8,88.26 -4.77,177.25 6.22,265.02 12.68,48.53 75.5,51.12 115.39,46.04 38.2,6.22 80.35,-19.14 86.97,-57.91 6.78,-85.92 1.62,-172.16 -4.19,-257.92 -21.98,0.97 -65.89,2.83 -87.86,3.72 -3.48,72.6 -3.07,145.92 -14.86,217.95 -3.72,-74.46 -4.6,-148.99 -5.17,-223.53 -32.38,-1.36 -64.68,0.9 -96.5,6.63zm-577.62 -1.37c-56.61,-3.39 -112.17,50.96 -88.02,109.17 12.03,53.21 7.43,106.43 0,159.82 21.48,71.86 120.88,63.62 173.86,35.21 53.05,-26.57 24.06,-95.37 22.36,-139.39 -8.31,-38.11 10.34,-76.14 4.37,-114.1 -18.33,-41.26 -69.05,-63.46 -112.57,-50.71zm124.76 3.39c3.31,29.32 6.94,58.78 10.57,88.18 15.1,4.44 30.29,8.87 45.46,13.4 1.05,68.32 2.42,136.63 4.6,205.03 33.92,0.8 67.67,1.77 101.75,2.82 0.24,-72.6 0.65,-145.12 0.97,-217.55 15.5,-4.28 31.09,-8.31 46.66,-12.27 0.34,-21.64 1.06,-64.93 1.38,-86.57 -70.59,1.05 -141.08,2.51 -211.41,6.95zm692.13 37.79c-14.86,73.56 -17.04,149.71 -6.95,224.09 4.53,35.53 40.86,58.22 74.86,56.2 39.9,-0.72 96.18,6.23 118.15,-36.65 12.11,-27.62 26.65,-75.27 -7.67,-91.33 -29.48,-8.72 -59.35,6.86 -87.61,14.78 0.56,-32.47 0.89,-65.09 1.61,-97.31 25.85,17.36 52.41,38.6 86.73,31.41 28.18,-21.16 19.86,-62.66 12.99,-91.42 -17.11,-44.9 -74.77,-51.36 -115.71,-46.03 -28.75,-3.48 -64.85,7.26 -76.39,36.25zm-1127.3 -11.22c-8.24,103.92 -8.64,210.35 3.07,314.52 66.06,-13.48 133.4,-13.8 200.27,-19.78 -0.97,-86 2.98,-172.32 -6.3,-257.92 -4.03,-29.55 -32.38,-48.77 -60.4,-51.84 -45.79,-3.39 -92.21,4.52 -136.63,15.03zm1340.81 31.57c-14.7,37.63 22.29,48.77 43.85,64.92 9.76,68.88 13.72,138.33 16.55,207.85 32.95,-0.16 65.89,-0.49 99.08,-0.56 6.14,-64.85 -13.64,-133.97 4.53,-196.87 26.97,-29.4 65.97,-68.48 32.7,-109.75 -35.77,-6.78 -71.62,-13.08 -107.88,-13.8 -31.17,7.5 -119.52,-19.79 -88.83,48.21zm-1459.19 -30.36c-38.51,5.17 -89.63,15.82 -105.06,57.25 -20.68,52.9 -9.37,111.84 -10.01,167.08 -1.46,38.35 9.45,91.49 54.83,99.08 56.61,9.61 140.26,1.3 152.54,-67.9 7.91,-71.15 4.77,-143.51 -0.4,-214.73 -20.76,-28.67 -56.77,-45.05 -91.9,-40.77zm1681.26 58.14c-7.84,66.77 -8.65,134.93 1.05,201.63 18.66,69.13 106.59,78.9 165.87,63.47 36.49,-10.01 38.6,-53.45 51.19,-83.17 13.4,27.77 -11.96,96.98 36.34,95.37 59.83,1.21 118.14,14.29 177.17,22.6 -1.45,-91.98 1.77,-183.95 -4.44,-275.68 -3.56,-21.56 -21.24,-38.6 -41.1,-45.88 -49.67,-16.06 -102.4,-16.31 -153.68,-22.44 -7.43,49.1 -10.5,98.59 -14.54,148.09 -5.64,-38.68 -8.31,-78.24 -20.27,-115.47 -20.83,-44.18 -79.78,-44.25 -120.79,-40.46 -35.22,-7.67 -70.91,17.68 -76.8,51.93zm-2019.85 39.48c-6.62,69.7 -7.75,140.84 2.51,210.29 8.15,36.98 52,47.24 84.46,41.51 43.21,-4.37 102.31,-15.03 117.01,-63.72 1.86,-34.32 -3.32,-68.07 -9.13,-101.58 -35.04,7.02 -71.46,17.44 -96.33,44.65 -0.89,-22.05 -1.21,-43.21 -1.77,-64.93 37.55,-4.12 75.34,-7.83 113.06,-11.94 -4.13,-28.92 -3.64,-59.12 -13.49,-86.72 -13.33,-32.06 -54.35,-43.04 -85.92,-34.64 -44.33,-2.11 -102.71,16.62 -110.39,67.09zm-253.16 377.77c22.76,227.88 40.94,456.24 57.01,684.7 475.55,281.25 954,557.99 1422.36,851.21 219.73,-118.46 428.56,-255.99 643.75,-382.28 236.21,-144.54 474.19,-286.03 714.1,-424.19 29.23,-20.51 73.48,-35.28 75.58,-76.87 18.49,-217.23 36.25,-434.61 51.28,-652.08 -22.2,-3.32 -43.37,-5.9 -65.17,-8.49 -21.96,216.99 -36.5,434.78 -49.58,652.48 -457.3,267.62 -907.98,546.21 -1363.57,816.65 -451.25,-278.68 -909.91,-544.91 -1365.37,-816.4 -20.11,-217.79 -34.8,-436.06 -55.06,-653.85 -22.29,2.17 -43.37,6.38 -65.33,9.12z"/>
  <path fill="#21457A" fill-rule="nonzero" d="M3468.3 2973.88c-0.81,-31.74 -1.3,-63.39 -1.46,-94.96 0.57,31.57 1.05,63.22 1.46,94.96z"/>
  <path fill="#21457A" fill-rule="nonzero" d="M1675.28 2885.37c9.04,37.55 12.84,76.56 0.89,113.87 -0.97,-38.11 -2.42,-75.9 -0.89,-113.87z"/>
  <path fill="#E05652" fill-rule="nonzero" d="M2510.66 1008.29c62.9,-25.19 128.96,-7.34 190.89,11.31 199.94,58.87 400.04,117.5 600.63,174.18 23.99,7.27 47.32,16.4 70.41,26.41 -199.29,107.73 -401.42,210.69 -592.47,332.7 -41.51,28.74 -89.56,41.02 -139.95,37.07 -501.47,-0.65 -1002.69,23.9 -1501.82,71.95 -7.19,-85.84 -14.45,-171.6 -24.71,-257.11 465.7,-131.95 931.32,-264.3 1397.02,-396.5z"/>
  <path fill="#E05652" fill-rule="nonzero" d="M3432.36 1275.66c70.99,-47.8 154.89,-0.96 227.65,20.35 -142.77,96.66 -288.12,189.52 -430.49,286.75 -34.47,26.48 -80.98,19.13 -121.44,19.87 -51.6,-5.42 -107.49,5.97 -156.26,-15.51 157.15,-108.36 320.35,-207.77 480.55,-311.46z"/>
  <path fill="#E05652" fill-rule="nonzero" d="M417.57 1303.85c6.05,26 -38.84,6.22 -11.14,-2.42 2.82,0.56 8.4,1.77 11.14,2.42z"/>
  <path fill="#E05652" fill-rule="nonzero" d="M3772.09 1326.29c88.83,25.28 178.06,49.34 265.44,79.38 -4.68,85.28 -11.63,170.55 -20.43,255.58 -196.96,-13.16 -393.75,-30.44 -590.06,-50.31 109.19,-101.66 227.16,-193.4 345.06,-284.65z"/>
  <path fill="#E05652" fill-rule="nonzero" d="M2931.22 1841.01c26.01,-92.95 127.35,-143.91 219.08,-116.77 65.65,16.24 108.53,76.4 131.54,136.95 51.2,136.23 92.46,276.09 147.94,410.63 8.65,-130.09 -5.49,-260.67 3.39,-390.67 12.84,-40.14 19.38,-87.13 49.58,-118.71 39.25,-23.26 87.86,-0.24 129.69,1.05 30.36,-2.35 70.01,23.18 52.73,60.48 2.83,141.56 -2.35,283.21 2.26,424.84 117.42,14.94 235.72,22.04 353.37,35.37 -0.08,-94.24 -2.01,-188.47 -0.56,-282.71 -7.51,-71.39 39.57,-130.74 74.06,-188.07 58.13,3.07 116.11,10.17 173.29,21.64 16.56,151.41 10.18,304.04 9.37,456 -1.93,19.31 18.17,23.66 33.02,27.06 111.2,20.83 225.46,25.19 335.45,52.8 31.34,8.81 25.68,51.77 29.55,75.1 -2.17,52.33 12.84,116.69 -26.81,159.16 -20.83,27.22 -48.53,48.78 -79.38,63.56 -70.49,-2.1 -139.21,-21.4 -209.23,-28.92 -65.41,-10.17 -132.26,-11.87 -196.39,-29.79 -46.35,-13.4 -79.7,-49.67 -113.87,-81.48 -15.18,23.74 -30.84,47.24 -45.94,71.06 -135.18,-16.96 -271.58,-23.82 -406.18,-44.65 -54.84,-2.42 -93.75,-41.75 -132.03,-75.74 -9.53,21.39 -18.98,42.87 -28.19,64.43 -59.03,-4.44 -120.88,2.91 -178.05,-14.21 -26.89,-21.32 -33.52,-59.59 -49.26,-89.23 -79.62,-3.87 -159.17,-8.89 -238.79,-11.47 -13.89,33.03 -27.05,66.38 -40.86,99.41 -63.39,-1.78 -126.62,-6.63 -189.68,-12.36 -1.05,-21.24 -3.15,-63.72 -4.2,-84.95 -44.08,42.47 -94.87,89.63 -160.53,88.42 -123.63,11.87 -248.24,9.45 -372.19,7.51 -25.76,1.05 -46.26,-20.12 -52.49,-43.61 -26.25,-90.69 -18.89,-186.39 -20.34,-279.49 1.93,-134.77 -2.51,-269.47 0.8,-404.16 0.16,-23.5 11.47,-51.19 36.02,-58.06 110.4,-21.33 223.69,-12.93 335.45,-15.11 69.53,0 157.06,3.07 201.24,66.14 56.36,58.06 56.76,142.52 50.47,217.63 -10.91,103.05 6.62,205.92 4.28,309.04 64.03,-156.98 109.17,-320.91 172.4,-478.13zm47.32 -25.76l0 0c-56.68,137.92 -103.2,279.89 -153.19,420.31 -20.02,55.64 -43.93,110.22 -57.66,167.97 52.81,1.21 105.54,0.24 158.44,-0.57 10.5,-31.57 21.64,-62.74 31.97,-94.31 101.42,-0.25 202.85,5.49 304.27,8.87 14.21,34.16 27.53,68.73 41.35,103.05 48.86,4.12 97.63,9.12 146.64,10.26 -56.44,-173.22 -124.03,-342.8 -182.98,-515.21 -20.92,-56.6 -41.99,-122.98 -102.4,-148.25 -61.2,-31.1 -155.6,-19.79 -186.45,47.89zm-796.78 -46.2l0 0c-5.89,5.42 -11.79,10.91 -17.68,16.31 -1.86,205.84 0.56,411.68 -1.77,617.59 107.23,15.35 216.33,-0.56 324.22,2.91 60.73,-4.84 133.89,10.26 183.38,-35.21 87.06,-71.3 70.66,-206.73 15.91,-293.78 16.72,-34.88 33.67,-70.17 41.67,-108.2 10.91,-93.35 -50.88,-207.29 -155.2,-206.17 -130.18,-3.31 -260.27,8.89 -390.52,6.54zm1314.32 21.8l0 0c2.1,163.45 -6.7,327.14 4.03,490.41 1.62,46.44 22.54,88.91 53.7,122.74 48.53,36.34 111.03,41.92 169.18,48.78 105.78,10.33 211.49,21.64 317.03,33.67 1.13,-55.88 -2.33,-111.84 -3.47,-167.64 -124.6,-12.92 -250.57,-17.45 -373.8,-40.54 -32.22,-6.7 -24.71,-52.81 -28.43,-74.62 -4.43,-134.45 -0.08,-268.98 -1.29,-403.44 -45.71,-3.23 -91.42,-6.62 -136.95,-9.37zm613.79 54.84l0 0c0.81,151.66 -3.31,303.46 0.16,455.21 1.7,52.89 7.67,113.86 49.51,151.73 36.42,41.98 92.38,59.75 146.24,63.95 112.41,13.41 224.09,31.9 336.57,44.34 0,-54.35 -0.08,-108.7 -0.16,-163.04 -109.99,-20.68 -221.18,-33.6 -332.13,-47.09 -24.15,0.41 -63.4,-11.22 -62.42,-41.98 -4.44,-148.19 1.05,-296.36 -1.05,-444.55 -45.46,-7.35 -91,-13.97 -136.72,-18.57z"/>
  <path fill="#E05652" fill-rule="nonzero" d="M1882.74 1776.57c3.47,-36.17 51.59,-41.18 78.81,-41.42 33.76,0.24 69.36,-6.54 102.64,2.66 26,17.61 24.95,54.35 30.6,81.41 9.77,173.7 1.95,347.88 4.85,521.9 2.73,68.24 -9.53,147.21 -70.26,188.8 -52.89,21.56 -126.95,22.85 -161.99,-29.88 -81.64,-110.06 -158.11,-224 -242.9,-331.82 -2.26,127.83 0.16,255.9 -8.32,383.66 -55.47,6.94 -112.97,21.88 -168.69,12.59 -24.55,-21.55 -37.63,-52.73 -55.64,-79.3 -2.91,30.13 -6.05,60.49 -10.42,90.53 -56.85,9.69 -114.18,16.55 -171.27,25.03 -23.9,-35.69 -56.04,-68.73 -66.29,-111.68 -7.1,-54.51 -6.05,-109.59 -7.43,-164.25 -36.18,48.53 -74.54,98.92 -130.25,126.37 -82.69,23.59 -169.1,27.38 -253.4,43.04 -2.5,44.82 1.21,90.53 -5.65,135.1 -14.61,24.71 -47.89,26.17 -72.19,32.87 -42.32,4.52 -96.18,27.53 -129.13,-11.79 -29.32,-28.9 -67.92,-60.8 -60.48,-107.56 -2.02,-200.75 -6.38,-401.98 2.5,-602.49 7.51,-39.81 56.61,-46.83 89.97,-54.43 127.42,-12.76 253.07,-46.26 381.55,-44.33 95.53,26.57 134.93,123.79 174.74,204.06 2.02,-68.23 1.46,-136.47 6.38,-204.46 1.05,-15.51 10.26,-32.31 27.06,-34.73 54.1,-10.82 109.42,-12.43 164.34,-16.15 17.92,41.27 35.53,82.62 52.73,124.2 21.4,-55.8 41.58,-119.67 97.54,-150.03 55.47,-23.18 128.8,-19.79 168.69,31 85.35,102.56 151.17,219.81 233.37,324.79 -2.42,-114.5 -8.15,-229.26 -1.45,-343.68zm30.44 -1.53l0 0c-0.4,146.89 1.53,293.86 -2.82,440.83 -96.51,-126.13 -178.23,-263.09 -274.56,-389.39 -19.14,-23.18 -45.06,-47.96 -77.69,-43.44 -73.08,-4.93 -134.61,58.63 -137.19,129.69 -2.51,179.43 -1.38,359.02 2.33,538.45 41.83,-1.77 83.58,-3.87 125.41,-5.57 16.31,-137.04 -2.75,-274.4 1.93,-411.6 -4.36,-20.67 0.09,-37.95 13.49,-52 27.69,23.34 45.63,55.16 66.69,84.15 71.31,107.88 151.26,209.63 226.92,314.37 27.62,54.26 107.24,60.55 150.76,23.34 27.87,-29.48 42.39,-70.82 40.55,-111.36 5.08,-175.32 -0.34,-350.8 1.29,-526.1 -45.79,2.26 -91.49,5.08 -137.12,8.64zm-741.22 60.73l0 0c-3.07,213.67 -3.72,427.5 0.96,641.17 47,-2.75 93.92,-6.86 140.84,-10.25 4.2,-214.4 0.97,-428.87 1.62,-643.28 -47.81,4.04 -95.7,8.07 -143.42,12.36zm-579.64 81.64l0 0c-27.78,6.38 -75.34,-3.07 -75.34,35.85 -4.19,204.87 0.65,409.89 -0.56,614.92 42.63,-6.94 85.19,-14.13 128.07,-19.38 0.56,-55.64 1.05,-111.11 1.62,-166.59 91.81,-11.46 184.75,-18.01 274.87,-40.29 86.57,-34.32 148.02,-120.17 159.33,-211.9 13.89,-95.28 -18.33,-216.34 -118.87,-250.98 -124.28,-11.78 -245.57,29.73 -369.12,38.36z"/>
  <path fill="#E05652" fill-rule="nonzero" d="M4332.26 1763.81c168.29,6.54 335.29,31.74 501.79,55.64 1.53,165.06 -4.19,330.19 -2.42,495.25 11.54,166.99 -3.07,334.15 0.56,501.31 -166.35,-22.53 -329.15,-67.5 -491.54,-109.25 142.93,-5.82 283.12,28.34 425.49,35.12 -54.03,-16.71 -108.94,-30.11 -162.15,-49.01 35.04,-31.26 84.06,-25.68 127.83,-31.1 -25.85,-9.77 -51.37,-20.34 -75.27,-34.07 34.24,-15.59 68.24,-35.69 107.4,-35.85 -18.66,-3.56 -37.31,-7.27 -55.88,-10.74 -0.24,-13.32 -0.72,-40.05 -1.05,-53.38 14.61,-0.64 43.85,-2.1 58.47,-2.82 -19.63,-7.75 -39.25,-15.43 -58.79,-23.1 0.89,-13.08 2.58,-39.16 3.39,-52.24 18.41,0.49 36.99,0.89 55.64,1.37 -18.81,-5.25 -37.63,-10.26 -56.45,-15.26 -3.63,-17.68 -7.5,-35.21 -11.38,-52.81 14.94,-0.89 44.74,-2.66 59.68,-3.56 -70.82,-24.95 -143.09,-46.26 -217.31,-58.06 -64.6,-13.57 -131.78,-20.51 -192.19,-48.85 134.94,0.72 266.97,34.4 401.91,34.56 -132.11,-43.93 -272.22,-58.63 -402.55,-108.21 135.01,3.07 267.77,33.84 402.95,34.57 -135.67,-39.25 -274.72,-65.49 -409.65,-107.16 142.93,3.39 283.68,29.4 425.8,41.99 -139.14,-47.56 -285.78,-68.72 -425.08,-115.71 136.79,6.54 272.05,32.05 408.93,36.65 -129.53,-40.45 -264.06,-61.78 -393.92,-100.85 137.44,-5.33 272.95,22.28 409.18,35.69 -133.49,-46.6 -273.51,-68.49 -408.77,-108.54 137.19,-2.1 272.61,22.61 408.68,36.1 -132.91,-48.3 -274.07,-66.87 -408.84,-109.19 137.35,-1.7 272.7,23.75 409.01,36.02 -142.12,-47 -290.55,-70.66 -433.48,-114.5z"/>
  <path fill="#E05652" fill-rule="nonzero" d="M322.52 1825.03c162.39,-16.16 324.14,-41.67 487.5,-47 -130.34,36.09 -262.29,66.06 -393.34,99.17 24.06,1.93 48.21,4.03 72.35,6.22 -16.31,30.85 -39.89,58.47 -75.02,67.67 57.58,-9.29 40.46,53.3 13.33,70.01 40.21,19.94 16.87,64.85 -14.94,78.74 11.63,-2.02 23.25,-3.96 34.88,-5.82 -22.36,45.7 23.34,111.84 -24.87,144.54 9.53,-0.64 19.06,-1.29 28.59,-1.86 -18.09,62.83 -1.62,126.87 -4.77,190.58 -3.88,12.19 -15.59,19.78 -23.5,29.39 9.29,-0.8 18.57,-1.45 27.94,-2.02 0.24,14.21 0.72,42.72 0.97,56.93 -12.6,2.83 -25.12,5.58 -37.64,8.16 22.13,15.1 36.42,36.09 42.88,63.06 -15.26,3.63 -30.53,7.19 -45.86,10.5 39.65,-4.36 68.07,19.63 87.37,49.67 -29.96,8.89 -59.84,17.76 -89.72,26.81 33.11,-2.98 66.29,-6.54 99.4,-10.5 9.21,10.66 27.7,31.97 36.99,42.63 -48.12,14.7 -97.47,25.03 -145.28,40.7 142.53,-0.15 283.21,-28.83 425.4,-35.77 -166.18,45.3 -335.27,78.65 -502.36,120.57 -1.21,-334.16 -0.56,-668.31 -0.32,-1002.38z"/>
  <path fill="#E05652" fill-rule="nonzero" d="M2294.81 1923.94c85.03,-2.66 170.39,-7.51 255.42,-1.29 47.49,10.33 44.58,91.24 -2.33,99.73 -81.16,7.99 -162.89,3.38 -244.19,1.12 -3.23,-33.27 -6.23,-66.38 -8.89,-99.57z"/>
  <path fill="#E05652" fill-rule="nonzero" d="M3093.53 1921.84c10.1,-0.32 20.27,-0.49 30.44,-0.65 29.64,85.35 63.31,169.83 84.06,258 -66.78,-5.08 -133.72,-6.7 -200.34,-12.99 24.06,-83.02 54.59,-163.85 85.84,-244.36z"/>
  <path fill="#E05652" fill-rule="nonzero" d="M859.03 2047.17c34.73,-11.54 63.07,10.98 90.69,26.73 -6.7,31 -0.89,69.76 -23.18,96.1 -16.15,20.18 -44.5,24.06 -68.08,28.18 -68.15,11.96 -137.19,18.17 -205.52,29.55 -3.38,-49.74 -6.13,-99.57 -6.78,-149.39 70.9,-10.67 141.48,-24.39 212.86,-31.17z"/>
  <path fill="#E05652" fill-rule="nonzero" d="M2294.73 2141.65c87.13,-1.62 175.16,-8.72 262.04,0.31 52.25,14.79 38.69,106.44 -16.39,105.87 -82.69,1.95 -165.62,-1.7 -248.4,-0.56 0.81,-35.37 1.7,-70.41 2.75,-105.62z"/>
  <path fill="#E05652" fill-rule="nonzero" d="M2472.3 2721.61c61.94,5.89 136.14,-13.08 191.22,24.39 21.33,98.68 14.38,201.24 11.72,301.61 -37.71,-4.77 -87.95,4.52 -100.21,-40.86 -11.96,44.73 -59.52,38.59 -97.39,38.51 -14.94,-107.24 -7.35,-215.93 -5.33,-323.65zm22.38 28.5l0 0c-0.41,91.49 -0.41,182.98 0.8,274.65 70.99,0.89 48.45,-86.01 63.8,-128.4 79.54,11.07 4.12,140.19 96.33,128.88 -2.02,-88.66 -3.47,-177.33 -5.98,-266 -51.19,-7.91 -103.2,-14.78 -154.95,-9.12z"/>
  <path fill="#E05652" fill-rule="nonzero" d="M2695.83 2732.75c31.81,-5.73 64.11,-7.99 96.5,-6.63 0.56,74.54 1.45,149.07 5.17,223.53 11.79,-72.03 11.38,-145.35 14.85,-217.95 21.98,-0.89 65.9,-2.75 87.87,-3.72 5.82,85.76 10.97,172 4.19,257.92 -6.63,38.76 -48.77,64.12 -86.97,57.91 -39.89,5.08 -102.71,2.5 -115.39,-46.04 -10.98,-87.77 -5.42,-176.77 -6.22,-265.02zm25.35 6.22l0 0c-0.89,84.31 -4.52,168.85 2.67,253.08 31.97,52.4 104.57,25.36 152.13,19.94 5.9,-86.32 6.55,-172.81 6.86,-259.21 -11.94,0 -36.01,0 -48.05,0 -1.12,73.56 -2.5,147.2 -6.62,220.7 -17.61,-3.72 -35.04,-7.27 -52.58,-10.66 -3.63,-66.47 -0.56,-133.16 -4.11,-199.47 2.42,-25.51 -38.44,-18.65 -50.32,-24.39z"/>
  <path fill="#E05652" fill-rule="nonzero" d="M2118.21 2731.38c43.52,-12.76 94.24,9.45 112.57,50.72 5.97,37.95 -12.68,75.98 -4.37,114.09 1.7,44.02 30.69,112.82 -22.36,139.39 -52.98,28.42 -152.38,36.65 -173.86,-35.22 7.43,-53.38 12.03,-106.59 0,-159.81 -24.15,-58.22 31.41,-112.57 88.02,-109.17zm-38.44 34.41l0 0c-43.77,17.92 -29.08,77.11 -26.89,113.21 18.25,55.72 117.74,24.8 110.8,99.73 -36.43,-11.06 -72.2,-24.3 -109.19,-33.27 -1.77,15.35 -5.4,46.04 -7.26,61.3 44.58,20.11 94.72,35.21 142.37,13.88 40.37,-25.76 15.82,-85.03 25.51,-123.06 -42.96,-21.64 -113.46,-17.85 -114.83,-82.12 36.67,8.15 73.24,16.71 109.66,25.92 -4.6,-25.12 1.86,-56.68 -19.94,-74.78 -30.85,-26 -76.07,-7.99 -110.22,-0.8z"/>
  <path fill="#E05652" fill-rule="nonzero" d="M2242.97 2734.78c70.34,-4.44 140.82,-5.9 211.41,-6.95 -0.32,21.65 -1.06,64.93 -1.37,86.57 -15.59,3.96 -31.17,7.99 -46.67,12.27 -0.32,72.43 -0.74,144.95 -0.97,217.55 -34.08,-1.05 -67.83,-2.02 -101.75,-2.82 -2.18,-68.4 -3.56,-136.72 -4.6,-205.03 -15.18,-4.53 -30.36,-8.96 -45.46,-13.4 -3.63,-29.4 -7.26,-58.87 -10.57,-88.18zm28.58 20.59l0 0c0.09,12.52 0.09,37.55 0.09,49.98 13.17,1.53 39.56,4.44 52.73,5.98 0.08,70.57 0.4,141.24 0.81,211.97 15.99,1.13 32.06,2.51 48.21,2.02 16.39,-69.77 6.86,-143.66 12.59,-214.72 27.53,-10.74 57.1,-21.16 62.1,-56.05 -58.87,-0.97 -117.74,-0.65 -176.53,0.81z"/>
  <path fill="#E05652" fill-rule="nonzero" d="M2935.1 2772.57c11.54,-28.99 47.65,-39.74 76.39,-36.25 40.94,-5.33 98.6,1.12 115.71,46.03 6.86,28.75 15.19,70.25 -12.99,91.42 -34.32,7.19 -60.89,-14.05 -86.73,-31.41 -0.72,32.21 -1.05,64.83 -1.61,97.31 28.26,-7.91 58.14,-23.5 87.61,-14.79 34.32,16.07 19.78,63.72 7.67,91.34 -21.96,42.88 -78.25,35.93 -118.14,36.65 -34.01,2.02 -70.34,-20.67 -74.87,-56.2 -10.09,-74.38 -7.91,-150.52 6.95,-224.09zm33.51 -16.55l0 0c-45.54,79.78 -15.01,178.05 -15.5,264.95 45.14,3.79 97.14,25.75 137.52,-3.16 27.7,-19.94 11.22,-57.17 12.68,-85.92 -26.97,12.19 -47.4,36.9 -75.83,46.11 -17.04,-2.02 -29.32,-15.18 -30.28,-32.22 -2.67,-47.89 -4.12,-97.31 11.62,-143.33 33.11,17.68 61.7,43.77 98.04,55.31 1.29,-25.35 2.5,-50.71 3.47,-76.07 -43.28,-23.99 -93.91,-22.69 -141.72,-25.67z"/>
  <path fill="#E05652" fill-rule="nonzero" d="M1807.8 2761.33c44.42,-10.5 90.84,-18.41 136.63,-15.01 28.02,3.07 56.37,22.29 60.4,51.84 9.29,85.6 5.33,171.92 6.3,257.92 -66.87,5.98 -134.21,6.3 -200.27,19.78 -11.71,-104.17 -11.31,-210.6 -3.07,-314.53zm18.41 18.74l0 0c-2.17,88.35 -2.17,176.68 -2.02,265.11 18.74,0.56 37.48,0.96 56.21,0.8 0.4,-73.56 0.56,-147.05 0.65,-220.53 11.87,0 35.69,0 47.56,0 0.49,71.71 1.37,143.33 3.31,215.13 13.49,0.89 40.46,2.66 53.86,3.55 0.16,-82.68 3.72,-165.46 -3.47,-247.83 -31.09,-55.39 -107.49,-11.54 -156.1,-16.22z"/>
  <path fill="#E05652" fill-rule="nonzero" d="M3148.6 2792.92c-30.69,-68 57.66,-40.71 88.83,-48.21 36.25,0.72 72.11,7.03 107.88,13.8 33.27,41.27 -5.73,80.35 -32.7,109.75 -18.17,62.9 1.61,132.03 -4.53,196.87 -33.18,0.08 -66.13,0.4 -99.08,0.56 -2.83,-69.53 -6.79,-138.98 -16.56,-207.85 -21.55,-16.15 -58.54,-27.29 -43.84,-64.92zm18.25 -24.07l0 0c5.09,31.9 17.04,61.54 54.35,67.84 9.12,68.64 7.59,138.17 10.01,207.29 13,-0.97 38.92,-3.07 51.93,-4.04 1.13,-57.73 0.49,-115.55 5.25,-173.05 -8.24,-43.69 47.8,-48.94 54.34,-87.62 -58.46,-5.73 -117.25,-9.05 -175.88,-10.42z"/>
  <path fill="#E05652" fill-rule="nonzero" d="M1689.41 2762.56c35.13,-4.28 71.15,12.11 91.9,40.77 5.17,71.22 8.31,143.58 0.4,214.73 -12.28,69.2 -95.93,77.51 -152.54,67.9 -45.38,-7.59 -56.28,-60.73 -54.83,-99.08 0.64,-55.24 -10.67,-114.18 10.01,-167.08 15.43,-41.42 66.54,-52.08 105.06,-57.25zm-72.92 48.77l0 0c-32.62,51.44 -15.26,118.3 -18.08,175.63 -0.72,28.27 4.77,88.02 47.72,80.83 36.02,-6.86 98.28,4.44 111.6,-41.26 7.84,-76.15 1.13,-153.19 2.91,-229.58 -47.07,-10.1 -104.82,-19.54 -144.14,14.38z"/>
  <path fill="#E05652" fill-rule="nonzero" d="M3370.67 2820.7c5.89,-34.24 41.58,-59.6 76.79,-51.93 41.02,-3.79 99.98,-3.72 120.81,40.46 11.96,37.23 14.63,76.79 20.27,115.47 4.04,-49.5 7.11,-98.99 14.54,-148.09 51.28,6.13 104.01,6.38 153.68,22.44 19.86,7.27 37.54,24.31 41.1,45.88 6.22,91.73 2.99,183.71 4.44,275.68 -59.03,-8.31 -117.34,-21.4 -177.17,-22.61 -48.3,1.62 -22.94,-67.59 -36.34,-95.36 -12.59,29.72 -14.7,73.16 -51.19,83.17 -59.28,15.43 -147.21,5.65 -165.87,-63.47 -9.69,-66.69 -8.89,-134.85 -1.05,-201.63zm40.7 -32.15l0 0c-30.11,74.29 -24.31,157.55 -17.04,235.72 5.98,35.85 52.24,38.11 79.7,42.07 27.94,1.86 70.57,5.33 81.16,-28.02 9.86,-68.4 10.1,-139.39 -0.16,-207.62 -22.04,-55.96 -99.73,-32.95 -143.66,-42.16zm205.68 17.36l0 0c-0.16,89.96 -0.16,179.92 0,269.88 13.4,-0.09 40.05,-0.25 53.45,-0.32 0,-36.25 -0.65,-72.43 1.37,-108.61 12.03,2.26 36.25,6.86 48.37,9.21 17.04,35.69 7.35,77.52 13.08,115.71 11.14,0 33.36,0.16 44.5,0.16 -6.14,-78.57 2.1,-156.98 1.77,-235.31 -20.75,-63.4 -114.67,-36.99 -162.55,-50.72z"/>
  <path fill="#E05652" fill-rule="nonzero" d="M1350.82 2860.18c7.67,-50.47 66.06,-69.2 110.39,-67.09 31.57,-8.4 72.6,2.58 85.92,34.63 9.85,27.62 9.36,57.82 13.49,86.73 -37.71,4.12 -75.5,7.83 -113.06,11.94 0.56,21.73 0.89,42.88 1.77,64.93 24.87,-27.22 61.29,-37.64 96.33,-44.65 5.82,33.51 10.99,67.26 9.13,101.58 -14.7,48.7 -73.81,59.35 -117.01,63.72 -32.46,5.73 -76.31,-4.53 -84.46,-41.51 -10.26,-69.45 -9.13,-140.59 -2.51,-210.29zm26.17 -5.64l0 0c-12.84,76.63 -2.91,155.76 1.45,233.13 43.77,0.72 89.23,2.98 131.14,-11.63 34.57,-22.13 29.24,-69.76 27.13,-105.13 -52.49,2.75 -56.93,65.97 -105.71,74.78 -1.53,-57.91 -2.26,-115.73 -2.26,-173.54 34,10.82 66.47,26.25 101.35,34.32 2.66,-25.83 4.12,-53.05 7.03,-78.41 -52.25,-9.77 -130.66,-30.28 -160.13,26.49z"/>
  <path fill="#E05652" fill-rule="nonzero" d="M272.29 2885.13c189.86,-28.83 379.45,-58.63 569.55,-85.76 14.21,91.74 18.01,184.52 21.24,277.14 -206.16,-23.5 -418.38,-69.85 -590.79,-191.38z"/>
  <path fill="#E05652" fill-rule="nonzero" d="M2551.04 2801.23c12.11,0 36.34,0 48.45,0 0,12.12 0,36.34 0,48.45 -12.11,0 -36.34,0 -48.45,0 0,-12.11 0,-36.33 0,-48.45z"/>
  <path fill="#E05652" fill-rule="nonzero" d="M4315.71 2801.63c190.89,22.86 379.69,61.94 571.32,78.98 -170.46,125.25 -384.71,169.33 -590.79,194.77 6.86,-91.25 13.81,-182.51 19.47,-273.76z"/>
  <path fill="#E05652" fill-rule="nonzero" d="M1656.06 2844.76c13.24,0 39.65,0 52.81,0 0.8,54.34 1.77,108.85 0.96,163.28 -13.24,0 -39.65,0 -52.81,0 -0.96,-54.5 -1.85,-108.85 -0.96,-163.28zm19.22 40.61l0 0c-1.53,37.96 -0.09,75.75 0.89,113.87 11.96,-37.3 8.15,-76.31 -0.89,-113.87z"/>
  <path fill="#E05652" fill-rule="nonzero" d="M3451.27 2838.78c17.44,3.47 34.96,7.1 52.49,10.57 0,54.19 0.08,108.45 0.15,162.72 -13.73,-0.97 -41.18,-2.91 -54.91,-3.88 -0.24,-56.52 -1.69,-113.06 2.27,-169.42zm17.04 135.1l0 0c-0.41,-31.74 -0.89,-63.39 -1.46,-94.96 0.16,31.57 0.65,63.22 1.46,94.96z"/>
  <path fill="#E05652" fill-rule="nonzero" d="M3674.71 2859.45c30.93,3.32 63.87,13 64.52,52.09 -16.56,0.81 -49.67,2.5 -66.22,3.31 0.4,-13.89 1.29,-41.51 1.7,-55.4z"/>
  <g id="_1651540395648">
   <path fill="#FAFAFA" fill-rule="nonzero" d="M3594.43 3653.44c-50.72,15.33 -113,-19.48 -123.8,-72.22 -11.27,-46.37 11.47,-102.49 59.78,-117.73 55.44,-33.55 132.86,11.47 140.87,72.02 12.63,51.68 -23.72,110.79 -76.84,117.92z"/>
   <path fill="#F6EEDF" fill-rule="nonzero" d="M3462.1 3260.65c-3.44,2.83 -6.73,5.76 -9.91,8.79l-813.6 794.45c-59.27,55.08 -51.05,138.68 1.19,197.55 52.35,58.75 142.17,87.93 207.67,39.76l921.86 -659.83c3.56,-2.72 7.03,-5.33 10.46,-8.15 80.54,-87.82 100.73,-237.11 5.93,-336.66 -90.66,-95.21 -229.9,-113.5 -323.6,-35.91z"/>
   <path fill="#E05652" fill-rule="nonzero" d="M3494.06 3346.04l-797.79 752.42c-35.42,33.41 -38.67,88.7 -7.33,126.06l0 0c31.34,37.37 86.18,43.86 125.42,14.91l880.94 -653.09c72.53,-53.82 84.89,-157.55 26.93,-226.91l0 0c-58.05,-69.24 -162.48,-75.33 -228.18,-13.38z"/>
   <circle fill="#21457A" transform="matrix(-0.301165 0.388408 -0.388408 -0.301165 3594.07 3462.67)" r="158.75"/>
  </g>
  <g id="_1651540345296">
   <path fill="#FAFAFA" fill-rule="nonzero" d="M1559.83 3653.43c50.71,15.34 113,-19.48 123.79,-72.22 11.29,-46.37 -11.47,-102.48 -59.78,-117.71 -55.43,-33.55 -132.86,11.47 -140.86,72.02 -12.64,51.68 23.72,110.77 76.84,117.91z"/>
   <path fill="#F6EEDF" fill-rule="nonzero" d="M1692.16 3260.65c3.43,2.82 6.73,5.75 9.91,8.78l813.6 794.45c59.27,55.1 51.05,138.68 -1.2,197.56 -52.34,58.75 -142.17,87.93 -207.67,39.75l-921.85 -659.82c-3.57,-2.72 -7.04,-5.34 -10.46,-8.16 -80.54,-87.8 -100.74,-237.11 -5.95,-336.66 90.67,-95.2 229.92,-113.5 323.61,-35.9z"/>
   <path fill="#E05652" fill-rule="nonzero" d="M1660.19 3346.04l797.78 752.41c35.42,33.42 38.68,88.71 7.34,126.07l0 0c-31.35,37.37 -86.19,43.85 -125.43,14.91l-880.94 -653.09c-72.53,-53.83 -84.89,-157.56 -26.93,-226.91l0 0c58.06,-69.24 162.48,-75.33 228.19,-13.38z"/>
   <circle fill="#21457A" transform="matrix(0.301165 0.388408 0.388408 -0.301165 1560.18 3462.67)" r="158.75"/>
  </g>
 </g>
</svg>
